<?xml version="1.0" encoding="UTF-8" standalone="no"?>
<svg xmlns="http://www.w3.org/2000/svg" xmlns:xlink="http://www.w3.org/1999/xlink" xmlns:sketch="http://www.bohemiancoding.com/sketch/ns" width="1060px" height="774px" viewBox="0 0 1060 774" version="1.1">
    <!-- Generator: Sketch 3.2.2 (9983) - http://www.bohemiancoding.com/sketch -->
    <title>A-20</title>
    <desc>Created with Sketch.</desc>
    <defs/>
    <g id="Page-1" stroke="none" stroke-width="1" fill="none" fill-rule="evenodd" sketch:type="MSPage">
        <g id="Борт" sketch:type="MSLayerGroup" transform="translate(211.000000, 197.000000)" fill="#ff1806">
            <path d="M577.875,185.416016 L354.884766,427.939453 L296.21875,446.509766 L249.035156,427.181641 C249.035156,427.181641 243.107747,421.698568 242.59375,415.939453 C242.079753,410.180339 244.693359,393.642578 244.693359,393.642578 L239.335938,391.269531 C239.335938,391.269531 239.052734,372.424479 246.478516,360.1875 C253.904297,347.950521 283.890625,317.847656 283.890625,317.847656 L295.958984,217.080078 L328.771484,184.509766 C328.771484,184.509766 351.962891,183.847656 362.369141,179.404297 C372.775391,174.960937 391.208984,157.849609 391.208984,157.849609 L427.554688,122.521484 L426.810547,100.109375 L531.84375,0.68359375 L578.369141,26.5664062 C578.369141,26.5664062 587.124674,25.9866536 590.138672,24.8535156 C593.152669,23.7203776 596.453125,19.7675781 596.453125,19.7675781 L625.179688,28.3242188 C625.179688,28.3242188 623.27181,32.7578125 625.150391,34.9101562 C627.028971,37.0625 633.122884,37.8476562 635.001465,40 C635.001465,40 638.976076,41.8372396 634.947754,43.9697266 C633.12951,44.9322565 629.64418,40.7750674 624.677246,42.2773438 C618.639929,44.1033634 611.474609,53.5957031 611.474609,53.5957031 C611.474609,53.5957031 622.636312,56.1115723 625.530762,57.7167969 C628.425212,59.3220215 628.841309,63.2270508 628.841309,63.2270508 C628.841309,63.2270508 630.359131,82.6822103 628.484375,92.0556641 C626.609619,101.429118 617.592773,119.467773 617.592773,119.467773 L577.875,185.416016 Z" id="Борт-1" sketch:type="MSShapeGroup"/>
            <path d="M8.21972656,329.40332 L49.3876953,346.05957 L97.8701172,335.75293 L54.4277344,318.186523 L89.9111328,243.923828 L161.355469,168.136719 L181.896484,150.933594 L218.179688,76.6279297 L48.5556641,220.021484 L44.4853516,226.412109 L3.50976562,266.037109 L3.20214844,277.608398 L6.28808594,282.864258 C6.28808594,282.864258 0.674804687,301.0236 0.643554688,308.538086 C0.612304688,316.052572 6.10058594,327.951172 6.10058594,327.951172 L8.21972656,329.40332 Z" id="Борт-2" sketch:type="MSShapeGroup"/>
        </g>
        <path d="M308.962891,532.251953 L265.80957,515.332031 L302.213867,438.702148 L373.328125,364.086914 L393.382812,347.617188 L402.725586,351.094727 L399.632812,354.916016 L402.232422,356.523438 L406.939453,352.366211 L412.146484,354.65918 L338.844727,422.325195 C338.844727,422.325195 338.503092,428.584473 339.823242,430.060547 C341.143392,431.536621 346.765625,431.181641 346.765625,431.181641 L430.944336,362.208008 L435.651367,362.336914 L487.435547,379.792969 L526.192383,394.15625 L506.751953,414.023438 L495.402344,514.061523 C495.402344,514.061523 463.611328,547.222656 456.19043,559.561523 C448.769531,571.900391 450.876953,588.094727 450.876953,588.094727 L308.962891,532.251953 Z" id="Лоб" fill="#ff1806" sketch:type="MSShapeGroup"/>
        <path d="M493.074219,381.011719 C496.095059,381.021968 490.382686,381.784676 493.818359,381.755859 C499.275896,381.710084 493.074219,382.755859 493.074219,382.755859 L493.203125,381.740234 L432.847656,361.65625 L348.054688,430.494141 C348.054688,430.494141 341.402669,431.511393 339.998047,429.980469 C338.593424,428.449544 339.626953,421.308594 339.626953,421.308594 L412.40625,354.970703 L407.449219,351.615234 L403.492188,355.699219 L399.650391,354.070312 L404.25,349.986328 L394.236328,347.386719 L429.40625,274.591797 L511.914063,303.703125 C511.914063,303.703125 485.423177,317.986654 479.087891,326.345703 C472.752604,334.704753 473.902344,353.857422 473.902344,353.857422 C473.902344,353.857422 478.411051,365.260091 481.616211,369.818359 C484.82137,374.376628 493.036621,381.795898 493.036621,381.795898 C493.036621,381.795898 485.254801,380.985189 493.074219,381.011719 Z" id="Лоб-башни" fill="#ff1806" sketch:type="MSShapeGroup"/>
        <path d="M508.910895,306.048954 L509.03125,305.357422 C509.03125,305.357422 541.503906,288.641602 552.855469,281.101562 C564.207031,273.561523 577.140625,260.117188 577.140625,260.117188 L598.294922,221.876953 L627.634766,274.130859 L623.050781,290.759766 L637.90625,294.859375 L638.363281,319.5 C638.363281,319.5 597.440104,361.979492 580.953125,372.238281 C564.466146,382.49707 539.441406,381.052734 539.441406,381.052734 L526.414062,394.451172 L495.703125,381.9375 L495.763073,381.593054 C492.92153,379.97571 484.210154,374.399823 479.0625,364.28125 C474.051598,354.431485 473.841828,338.301395 474.734375,332.554688 C476.734049,319.679688 508.6875,304.84375 508.6875,304.84375 L508.465939,306.270279 L508.910895,306.048954 Z" id="Борт-башни" fill="#ff2d0b" sketch:type="MSShapeGroup"/>
        <path d="M511.027344,303.712891 C511.027344,303.712891 542.216797,291.256836 556.722656,277.800781 C562.805414,272.158239 574.10409,261.766257 581.634766,251.416016 C592.062872,237.083515 598.0625,222.976562 598.0625,222.976562 C598.0625,222.976562 602.842122,220.97168 591.335938,217.205078 C579.829753,213.438477 529.025391,200.376953 529.025391,200.376953 L521.527344,201.205078 C521.527344,201.205078 516.035807,197.040365 513.826172,197.121094 C511.616536,197.201823 506.785156,200.705078 506.785156,200.705078 L506.042969,207.662109 L470.402344,223.390625 L463.445312,223.890625 L460.458984,228.974609 L454.646484,234.417969 C454.646484,234.417969 448.242513,234.72168 446.21875,237 C444.194987,239.27832 442.503906,248.087891 442.503906,248.087891 L430.005859,273.443359 L511.027344,303.712891 Z" id="Корма-башни" fill="#ff2d0b" sketch:type="MSShapeGroup"/>
        <path d="M741.634766,197.429688 L639.857422,295.236328 L622.486328,290.521484 L628.556641,273.779297 L598.974609,221.011719 L522.195312,197.615234 L534.365234,188.830078 L535.623047,183.501953 L542.478516,177.300781 L549.421875,177.300781 L579.019531,150.189453 L670.382812,176.830078 C670.382812,176.830078 675.226562,174.710612 677.455078,175.429688 C679.683594,176.148763 683.753906,181.144531 683.753906,181.144531 L741.634766,197.429688 Z" id="Корма" fill="#ff1305" sketch:type="MSShapeGroup"/>
    </g>
</svg>
