<?xml version="1.0" encoding="UTF-8" standalone="no"?>
<svg xmlns="http://www.w3.org/2000/svg" xmlns:xlink="http://www.w3.org/1999/xlink" xmlns:sketch="http://www.bohemiancoding.com/sketch/ns" width="1060px" height="774px" viewBox="0 0 1060 774" version="1.1">
    <!-- Generator: Sketch 3.2.2 (9983) - http://www.bohemiancoding.com/sketch -->
    <title>T110</title>
    <desc>Created with Sketch.</desc>
    <defs/>
    <g id="Page-1" stroke="none" stroke-width="1" fill="none" fill-rule="evenodd" sketch:type="MSPage">
        <g id="Борт" sketch:type="MSLayerGroup" transform="translate(263.000000, 97.000000)" stroke="#979797" fill="#ff5c16">
            <path d="M659.875,260.851562 L453.863281,493.117188 L393.179688,517.402344 L308.730469,484.886719 C308.730469,484.886719 301.714844,474.997396 301.757812,465.832031 C301.800781,456.666667 308.988281,429.894531 308.988281,429.894531 L283.933594,419.949219 L290.9375,409.544922 L282.537109,406.6875 L280.582031,402.873047 L284.037109,402.001953 L292.738281,405.34375 L345.261719,348.277344 L343.777344,345.048828 L346.505859,328.193359 L359.632812,333.535156 L402.486328,293.78125 L408.59375,293.443359 L408.978516,285 L417.035156,276.6875 L481.802734,236.189453 L644.423828,72.3457031 L717.708984,92.5292969 C717.708984,92.5292969 722.426107,95.9729818 723.294922,98.1015625 C724.163737,100.230143 722.421875,107.271484 722.421875,107.271484 L704.195312,103.056641 L699.609375,106.771484 C699.609375,106.771484 709.964518,108.610026 711.738281,113.314453 C713.512044,118.01888 710.251953,134.998047 710.251953,134.998047 C710.251953,134.998047 697.623372,172.584961 689.78125,192.207031 C681.939128,211.829102 663.199219,252.730469 663.199219,252.730469 L659.875,260.851562 Z" id="Path-1" sketch:type="MSShapeGroup"/>
            <path d="M219.21875,202.90625 L117.683594,329.441406 L106.285156,348.78125 L65.34375,384.464844 L20.5507812,367.609375 C20.5507812,367.609375 11.9661458,352.942057 11.4375,344.066406 C10.9088542,335.190755 17.3789062,314.355469 17.3789062,314.355469 L0.78125,308.382812 L18.09375,278.445312 L120.597656,201.191406 L107.941406,188.023438 C107.941406,188.023438 136.38737,174.57487 148.453125,167.222656 C160.51888,159.870443 180.335938,143.910156 180.335938,143.910156 L186.824219,143.742188 L268.617188,79.8320312 L271.355469,82.9433594 L378.824219,0.34375 L395.666016,3.20117188 L396.423828,7.15820312 C396.423828,7.15820312 320.726888,46.0270182 294.722656,69.4824219 C268.718424,92.9378255 240.398438,147.890625 240.398438,147.890625 C240.398438,147.890625 228.730794,167.658854 225.4375,175.720703 C222.144206,183.782552 218.880859,197.632812 218.880859,197.632812 L219.21875,202.90625 Z" id="Path-2" sketch:type="MSShapeGroup"/>
        </g>
        <g id="Лоб" sketch:type="MSLayerGroup" transform="translate(370.000000, 300.000000)" stroke="#979797" fill="#52c70e">
            <path d="M0.107421875,145.183594 L112.126953,0.08203125 L116.826172,27.6933594 L125.011719,35.25 L0.107421875,145.183594 Z" id="Path-3" sketch:type="MSShapeGroup"/>
            <path d="M24.3339844,163.470703 C24.3339844,163.470703 59.6526693,197.932943 82.5351562,207.896484 C105.417643,217.860026 160.158203,224.367188 160.158203,224.367188 L177.544922,216.585938 L182.986328,206.787109 L173.330078,202.671875 L174.1875,198.330078 L185.828125,201.572266 L238.154297,145.003906 L236.667969,141.417969 L238.539062,124.320312 L253.28125,129.777344 L296.453125,89.0332031 L301.636719,89.2480469 L301.636719,81.0488281 L359.476562,42.4082031 C359.476562,42.4082031 297.298503,59.656901 265.398438,61.078125 C233.498372,62.499349 168.076172,50.9355469 168.076172,50.9355469 L160.164062,54.75 L152.621094,55.3632812 L24.3339844,163.470703 Z" id="Path-4" sketch:type="MSShapeGroup"/>
        </g>
        <path d="M625.527344,286.234375 L618.726562,359.671875 L540.105469,351 L531.048828,354.472656 C531.048828,354.472656 531.927083,333.592122 525.777344,330.230469 C522.987543,328.70547 516.368547,321.930013 509.806641,323.146484 C501.90371,324.61156 494.150391,334.302734 494.150391,334.302734 L486.509766,327.458984 C486.509766,327.458984 480.061198,300.906901 482.537109,288.148438 C485.013021,275.389974 501.365234,250.908203 501.365234,250.908203 L625.527344,286.234375 Z" id="Лоб-башни" stroke="#979797" fill="#a8bf1c" sketch:type="MSShapeGroup"/>
        <path d="M619.187052,358.415161 L618.970703,359.583984 C618.970703,359.583984 648.751953,361.098958 669.595703,356.742188 C690.439453,352.385417 734.433594,340.042969 734.433594,340.042969 C734.433594,340.042969 763.611654,314.042318 772.664062,301.882812 C781.716471,289.723307 788.748047,267.085938 788.748047,267.085938 C788.748047,267.085938 805.398112,267.060872 808.433594,258.828125 C809.789179,255.151544 817.070186,245.389735 816.490234,237 C815.771535,226.603106 806.960938,217.689453 806.960938,217.689453 C806.960938,217.689453 813.970378,190.967122 819.832031,180.820312 C825.693685,170.673503 842.130859,156.808594 842.130859,156.808594 L830.746094,122.753906 L817.21875,118.683594 L811.146484,102.070312 L800.434826,112.421501 L800.434826,112.421501 L800.833984,113.355469 L799.944317,114.228531 L798.632812,125.496094 C798.632812,125.496094 798.53418,143.351562 771.007812,169.306641 C769.208711,171.003044 767.057268,172.955798 764.607223,175.124149 C761.661199,179.434685 758.583646,183.733696 755.394531,187.935547 C735.335946,214.363945 708.580972,233.907558 695.970703,246.402344 C675.833813,266.354824 649.914966,277.295463 635.847575,282.144955 L635.849609,281.828125 L624.707031,283.572266 L618.392578,358.351562 L619.187052,358.415161 Z" id="Борт-башни" stroke="#979797" fill="#ff9924" sketch:type="MSShapeGroup"/>
        <path d="M502.103516,249.929688 L623.908203,285.339844 C623.908203,285.339844 677.705404,265.69987 706.900391,237 C719.339895,224.771457 743.432258,202.978828 760.654297,179.121094 C804.037109,142.851562 799.078125,113.140625 799.078125,113.140625 L811.09375,102.126953 C811.09375,102.126953 805.252279,96.8753255 799.966797,95.4277344 C794.681315,93.9801432 779.380859,93.4414062 779.380859,93.4414062 C779.380859,93.4414062 766.654622,87.3317057 754.669922,84.8984375 C742.685221,82.4651693 707.472656,78.8417969 707.472656,78.8417969 L691.917969,85.7851562 L682.132812,80.828125 L674.089844,84.7988281 L671.105469,74.6425781 L669.376953,84.0566406 L663.548828,94.5839844 L657.892578,104.783203 C657.892578,104.783203 580.791016,143.377604 555.271484,166.806641 C529.751953,190.235677 504.632812,243.34375 504.632812,243.34375 L502.103516,249.929688 Z" id="Корма-башни" stroke="#979797" fill="#ff5514" sketch:type="MSShapeGroup"/>
        <path d="M837.068359,137.080078 L889.451172,153.535156 L888.578125,162.949219 L906.191406,168.648438 L772.5,305.410156 L789.099609,266.527344 C789.099609,266.527344 805.596354,268.041992 808.669922,259.728516 C810.048007,256.00103 818.73929,245.845681 818.226562,237 C817.595745,226.117004 807.541016,216.646484 807.541016,216.646484 C807.541016,216.646484 815.900391,189.197266 821.783203,179.476562 C827.666016,169.755859 842.837891,158.322266 842.837891,158.322266 L837.068359,137.080078 Z" id="Корма" stroke="#979797" fill="#ff2e0b" sketch:type="MSShapeGroup"/>
    </g>
</svg>
