<?xml version="1.0" encoding="UTF-8" standalone="no"?>
<svg xmlns="http://www.w3.org/2000/svg" xmlns:xlink="http://www.w3.org/1999/xlink" xmlns:sketch="http://www.bohemiancoding.com/sketch/ns" width="1060px" height="774px" viewBox="0 0 1060 774" version="1.1" fill="none" opacity="0">
    <!-- Generator: Sketch 3.2.2 (9983) - http://www.bohemiancoding.com/sketch -->
    <title>T-34-85</title>
    <desc>Created with Sketch.</desc>
    <defs/>
    <g id="Page-1" stroke="none" stroke-width="1" fill="none" fill-rule="evenodd" sketch:type="MSPage" opacity="0">
        <g id="Лоб" sketch:type="MSLayerGroup" transform="translate(227.000000, 359.000000)" opacity="0.5" fill="#ff0c03">
            <path d="M13.7666016,170.230469 L0.646484375,165.087891 C0.646484375,165.087891 1.45410156,128.619141 27.2089844,111.785156 C50.8144531,90.6855469 72.5410156,70.9873047 72.5410156,70.9873047 L135.054688,15.4716797 L151.035156,0.962890625 L161.933594,6.11914062 C161.933594,6.11914062 161.313477,10.7060547 165.833984,13.7978516 C170.354492,16.8896484 183.482422,20.4257812 183.482422,20.4257812 L184.539062,23.7041016 L13.7666016,170.230469 Z" id="Лоб-2" sketch:type="MSShapeGroup"/>
            <path d="M302.494141,227.216797 C292.052083,243.496419 283.324219,281.083984 283.324219,281.083984 L245.240234,264.300781 C245.240234,264.300781 239.927734,261.056641 244.126953,252.400391 C215.900391,242.259766 93.6953125,192.962891 93.6953125,192.962891 C93.6953125,192.962891 95.6816406,196.548828 72.0117188,196.548828 C48.5136719,186.992188 29.671875,179.048828 29.671875,179.048828 L185.787109,46.1875 L217.34375,56.9375 C217.34375,56.9375 229.326172,53.1894531 236.726562,44.5175781 C260.611328,52.4453125 273.412109,58.015625 287.509766,60.6152344 C301.607422,63.2148437 307.564453,56.0292969 307.564453,56.0292969 L356.017578,75.4570312 L345.189453,185.748047 C345.189453,185.748047 312.936198,210.937174 302.494141,227.216797 Z" id="Лоб-1" sketch:type="MSShapeGroup"/>
        </g>
        <g id="Борт" sketch:type="MSLayerGroup" transform="translate(214.000000, 205.000000)" opacity="0.5" fill="#ff0c03">
            <path d="M13.8114745,311.930581 C15.3070925,303.452599 18.1804084,288.701342 20.9951172,282.78125 C25.0519206,274.248698 37.1005859,266.996094 37.1005859,266.996094 L72.8193359,235.848633 L176.396484,140.749023 L182.524414,125.392578 L21.359375,258.459961 L18.6170176,264.819182 L18.9296875,261.753906 C18.9296875,261.753906 8.33170573,274.732422 5.359375,282.294922 C3.02138542,288.243468 1.72344987,300.199112 1.27593739,305.031215 L0.130859375,307.686523 L3.23528029,310.26882 C4.5015925,312.062326 6.05494675,314.140005 7.08789062,315.099609 C9.09830729,316.967285 13.1582031,318.334961 13.1582031,318.334961 L13.8114745,311.930581 Z" id="Борт-2" sketch:type="MSShapeGroup"/>
            <path d="M399.458984,174.194336 C379.425293,185.780111 324.665039,210.355469 324.665039,210.355469 L369.033203,228.5625 L359.505859,338.382812 C359.505859,338.382812 326.75651,363.080404 316.25,379.236328 C305.74349,395.392253 296.466797,435.318359 296.466797,435.318359 L346.449219,457.84375 C346.449219,457.84375 364.915039,453.805339 374.402344,450.789062 C383.889648,447.772786 403.373047,439.746094 403.373047,439.746094 L633.140625,186.929687 C633.140625,186.929687 671.095378,123.80013 679.400391,102.257812 C688.328125,75.359375 682.970703,57.6757812 682.970703,57.6757812 C682.970703,57.6757812 679.142578,54.2050781 671.84375,53.8183594 C675.158203,50.3769531 679.160156,49.2392578 679.160156,49.2392578 L688.327148,45.0898437 L688.695312,40.7832031 L651.394531,30.3837891 C651.394531,30.3837891 651.881172,24.5584633 650.626465,18.8637695 C649.679926,14.567745 647.38804,10.434987 645.14502,8.43261719 C642.875868,6.40692048 638.264359,3.00715838 633.299316,2.07568359 C626.850756,0.865890899 620.09668,2.44384766 620.09668,2.44384766 L604.927246,17.5566406 L585.835937,11.015625 C585.835937,11.015625 584.275309,5.99503581 581.350586,3.85888672 C578.425863,1.72273763 573.682617,0.817382812 573.682617,0.817382812 C573.682617,0.817382812 567.276042,2.42895508 565.498047,2.91699219 C563.720052,3.4050293 541.670898,23.6582031 541.670898,23.6582031 L484.359375,76.4921875 C484.359375,76.4921875 474.94515,98.4715169 468.701172,109.216797 C462.457194,119.962077 446.895508,140.963867 446.895508,140.963867 C446.895508,140.963867 419.492676,162.608561 399.458984,174.194336 Z" id="Борт-1" sketch:type="MSShapeGroup"/>
        </g>
        <path d="M595.576172,388.505859 C585.805017,393.735643 550.926267,411.174047 536.53125,416.246094 C515.687546,423.590318 515.5625,419.216797 515.5625,419.216797 C515.5625,419.216797 509.890299,380.665039 512.611328,365.685547 C515.332357,350.706055 536.009766,329.560547 536.009766,329.560547 L647.701172,268.964844 L678.169922,194.564453 L701.824219,266.515625 C701.824219,266.515625 694.803711,288.059245 688.861328,302.212891 C682.918945,316.366536 661.914063,345.679688 661.914063,345.679688 C661.914063,345.679688 619.495768,375.703451 595.576172,388.505859 Z" id="Борт-башни" opacity="0.5" sketch:type="MSShapeGroup" fill="#ff4711"/>
        <path d="M566.151868,312.948726 L566.392578,312.449219 L429.675781,266.152344 L392.419922,341.205078 C392.419922,341.205078 387.03125,357.200521 387.193359,362.630859 C387.355469,368.061198 393.392578,373.787109 393.392578,373.787109 L412.076172,381.472656 L421.302734,371.375 C421.302734,371.375 426.207352,366.279211 430.402344,364.388672 C434.294508,362.634606 437.448973,364.028089 438.660156,365.160156 C439.857783,366.279553 441.978259,371.856813 441.173828,376.431641 C440.287889,381.470003 436.402344,385.488281 436.402344,385.488281 L414.203125,405.943359 L444.1875,415.757812 L464.470703,403.515625 L514.509766,420.113281 L515.811987,417.410991 C514.297144,413.416768 510.911787,402.873193 511.208031,389.056641 C511.491523,375.834837 517.063902,357.597943 520.614244,350.03125 C528.517128,333.18817 562.764814,314.741906 566.151868,312.948726 Z" id="Лоб-башни" opacity="0.5" sketch:type="MSShapeGroup" fill="#ff6418"/>
        <path d="M567.642578,312.291016 L430.609375,265.738281 L468.978516,207.927734 L582.126953,161.617188 L675.347656,189.115234 L647.978516,265.865234 L567.642578,312.291016 Z" id="Корма-башни" opacity="0.5" sketch:type="MSShapeGroup" fill="#ff1a06"/>
        <path d="M699.355469,278.591797 L784.449219,203.927734 C784.449219,203.927734 778.005859,201.328125 772.792969,206.3125 C728.810547,194.185547 700.568359,186.257812 700.568359,186.257812 C700.568359,186.257812 700.391104,183.480163 695.798828,180.185547 C692.22156,177.619123 684.380719,174.462071 682.142578,173.857422 C677.03125,172.476562 669.900391,177.972656 669.900391,177.972656 L619.132812,164.216797 C619.132812,164.216797 616.691732,148.530273 612.115234,144.181641 C607.538737,139.833008 591.673828,138.125 591.673828,138.125 L542.673828,177.037109 L582.3125,161.425781 L677.162109,190.050781 L699.917969,263.345703 L699.355469,278.591797 Z" id="Корма" opacity="0.5" sketch:type="MSShapeGroup" fill="#ff0200"/>
    </g>
</svg>
